<svg xmlns="http://www.w3.org/2000/svg" width="17" height="17" fill="none" viewBox="0 0 17 17">
    <path fill="#181818" d="M6.677 12h-.86V7.01c0-.287.004-.517.01-.69.007-.173.017-.353.03-.54-.106.107-.206.197-.3.27-.086.073-.193.167-.32.28l-.76.62-.46-.59 1.93-1.5h.73V12zm6.673-4.09c0 .513-.047 1.02-.14 1.52-.087.493-.25.943-.49 1.35-.233.4-.567.72-1 .96-.427.24-.977.36-1.65.36-.133 0-.29-.01-.47-.03-.18-.013-.323-.037-.43-.07v-.75c.26.087.553.13.88.13.467 0 .85-.077 1.15-.23.307-.153.55-.36.73-.62.18-.267.31-.573.39-.92.08-.353.127-.723.14-1.11h-.06c-.153.227-.367.423-.64.59-.273.16-.627.24-1.06.24-.613 0-1.11-.187-1.49-.56-.373-.38-.56-.913-.56-1.6 0-.5.093-.93.28-1.29.187-.36.45-.637.79-.83.347-.193.75-.29 1.21-.29.453 0 .863.117 1.23.35.367.227.657.573.87 1.04.213.46.32 1.047.32 1.76zM10.93 5.5c-.413 0-.753.137-1.02.41-.26.273-.39.69-.39 1.25 0 .46.11.823.33 1.09.227.26.573.39 1.04.39.32 0 .597-.063.83-.19.233-.133.413-.3.54-.5.133-.2.2-.407.2-.62 0-.287-.057-.57-.17-.85-.113-.28-.283-.513-.51-.7-.227-.187-.51-.28-.85-.28z"/>
    <circle cx="8.5" cy="8.5" r="8" stroke="#FF3C3C"/>
</svg>
