<svg width="45" height="45" viewBox="0 0 45 45" fill="none" xmlns="http://www.w3.org/2000/svg">
<path d="M18.3742 22.6899C19.5453 22.6899 20.4946 21.7406 20.4946 20.5696C20.4946 19.3985 19.5453 18.4492 18.3742 18.4492C17.2032 18.4492 16.2539 19.3985 16.2539 20.5696C16.2539 21.7406 17.2032 22.6899 18.3742 22.6899Z" stroke="#8BC0FF" stroke-miterlimit="10"/>
<path d="M12.4219 30.7515L16.0875 25.1093L19.274 27.8406L24.8444 21.6113L31.3372 30.7515H12.4219Z" stroke="#8BC0FF" stroke-miterlimit="10" stroke-linecap="round" stroke-linejoin="round"/>
<path d="M31.5513 35.5548H12.1927C10.875 35.5548 9.79688 34.4767 9.79688 33.159V13.7884C9.79688 12.4707 10.875 11.3926 12.1927 11.3926H31.5513C32.869 11.3926 33.9472 12.4707 33.9472 13.7884V33.147C33.9472 34.4767 32.881 35.5548 31.5513 35.5548Z" stroke="#8BC0FF" stroke-miterlimit="10" stroke-linecap="round" stroke-linejoin="round"/>
<path d="M32.3746 18.1281C29.3973 18.1281 26.9688 15.6996 26.9688 12.7223C26.9688 9.74496 29.3973 7.31641 32.3746 7.31641C35.3519 7.31641 37.7805 9.74496 37.7805 12.7223C37.7805 15.6996 35.3519 18.1281 32.3746 18.1281Z" fill="#8BC0FF"/>
<path d="M32.3764 7.9C35.0384 7.9 37.1985 10.06 37.1985 12.7221C37.1985 15.3841 35.0384 17.5442 32.3764 17.5442C29.7143 17.5442 27.5543 15.3841 27.5543 12.7221C27.5543 10.0717 29.7143 7.9 32.3764 7.9ZM32.3764 6.73242C29.0721 6.73242 26.3867 9.41784 26.3867 12.7221C26.3867 16.0263 29.0721 18.7117 32.3764 18.7117C35.6806 18.7117 38.366 16.0263 38.366 12.7221C38.366 9.41784 35.6806 6.73242 32.3764 6.73242Z" fill="#8BC0FF"/>
<path d="M29.5977 12.7227H35.1553" stroke="white" stroke-width="0.7" stroke-miterlimit="10" stroke-linecap="round" stroke-linejoin="round"/>
<path d="M32.375 9.94336V15.501" stroke="white" stroke-width="0.7" stroke-miterlimit="10" stroke-linecap="round" stroke-linejoin="round"/>
</svg>
