<svg width="45" height="45" viewBox="0 0 45 45" fill="none" xmlns="http://www.w3.org/2000/svg">
<g clip-path="url(#clip0)">
<path d="M44.2995 0.132812H0.132812V44.2995H44.2995V0.132812Z" fill="white"/>
<path d="M32.7786 35.0009H11.6675C10.4453 35.0009 9.44531 34.0009 9.44531 32.7786V11.6675C9.44531 10.4453 10.4453 9.44531 11.6675 9.44531H18.4675C19.0898 9.44531 19.6898 9.71198 20.112 10.1675L23.2342 13.6009C23.6564 14.0675 24.2564 14.3231 24.8786 14.3231H32.7786C34.0009 14.3231 35.0009 15.3231 35.0009 16.5453V32.7675C35.0009 34.0009 34.0009 35.0009 32.7786 35.0009Z" fill="white" stroke="#8BC0FF" stroke-miterlimit="10" stroke-linecap="round" stroke-linejoin="round"/>
<path d="M17.9902 28.2558C18.9966 28.2558 19.8124 27.4399 19.8124 26.4336C19.8124 25.4272 18.9966 24.6113 17.9902 24.6113C16.9838 24.6113 16.168 25.4272 16.168 26.4336C16.168 27.4399 16.9838 28.2558 17.9902 28.2558Z" fill="white" stroke="#8BC0FF" stroke-miterlimit="10" stroke-linecap="round" stroke-linejoin="round"/>
<path d="M19.8125 26.5344V18.2344" stroke="#8BC0FF" stroke-miterlimit="10" stroke-linecap="round" stroke-linejoin="round"/>
<path d="M19.8477 18.2344L25.4699 19.9455" stroke="#8BC0FF" stroke-miterlimit="10" stroke-linecap="round" stroke-linejoin="round"/>
<path d="M23.6464 29.8788C24.6528 29.8788 25.4687 29.063 25.4687 28.0566C25.4687 27.0502 24.6528 26.2344 23.6464 26.2344C22.6401 26.2344 21.8242 27.0502 21.8242 28.0566C21.8242 29.063 22.6401 29.8788 23.6464 29.8788Z" fill="white" stroke="#8BC0FF" stroke-miterlimit="10" stroke-linecap="round" stroke-linejoin="round"/>
<path d="M25.4688 28.0574V20.0352" stroke="#8BC0FF" stroke-miterlimit="10" stroke-linecap="round" stroke-linejoin="round"/>
</g>
</svg>
