<svg width="40" height="40" viewBox="0 0 40 40" fill="none" xmlns="http://www.w3.org/2000/svg">
<path d="M15.4285 29.2376C15.4285 31.3154 17.3003 32.9999 19.6071 32.9999C21.9139 32.9999 23.7856 31.3154 23.7856 29.2376C23.7857 28.9389 23.7464 28.642 23.6693 28.3571H15.5449C15.4677 28.642 15.4285 28.9389 15.4285 29.2376Z" fill="#8BC0FF" stroke="#8BC0FF" stroke-width="1.3" stroke-linecap="round" stroke-linejoin="round"/>
<path d="M31.1714 26.7609C31.1714 26.722 31.1714 26.683 31.1714 26.6467C31.1714 26.5662 31.1527 26.4858 31.142 26.4079C31.1313 26.3301 31.1233 26.3197 31.1153 26.273C31.1073 26.2263 31.0886 26.1302 31.0725 26.0602L31.0325 25.92C31.0164 25.8525 30.9977 25.785 30.9763 25.7176C30.9603 25.6708 30.9443 25.6241 30.9256 25.5774C30.9069 25.5307 30.8802 25.4451 30.8534 25.3802C30.8267 25.3153 30.8134 25.2893 30.7947 25.2426L30.7065 25.048L30.637 24.9156C30.6049 24.8507 30.5702 24.7858 30.5328 24.7236C30.4954 24.6613 30.482 24.6379 30.4553 24.5964C30.4286 24.5549 30.3778 24.4666 30.3351 24.4017L30.2522 24.2823C30.2068 24.2175 30.1614 24.1526 30.1133 24.0903L30.0251 23.9761C29.9744 23.9112 29.9209 23.8463 29.8648 23.784L29.7766 23.6802C29.7178 23.6127 29.6564 23.5479 29.5949 23.483L29.5041 23.3895L29.2984 23.1897L29.2128 23.1093L28.975 22.9016L28.9002 22.8367C28.8094 22.7615 28.7132 22.6862 28.617 22.6109L28.5689 22.5746C28.446 22.4812 28.3204 22.3903 28.1895 22.3021V15.5335C28.0398 12.0246 25.2904 9.12299 21.6351 8.36515C21.5021 7.98893 21.2582 7.65896 20.9338 7.41625C20.6093 7.17355 20.2186 7.0288 19.8102 7H19.7113H19.5991H19.4868H19.388C18.9796 7.02913 18.5891 7.174 18.2647 7.41666C17.9403 7.65932 17.6963 7.98911 17.563 8.36515C13.9104 9.12299 11.1503 12.0246 11.0113 15.5335V22.3021C10.8804 22.3903 10.7441 22.4812 10.6292 22.5746L10.5811 22.6109C10.4849 22.6862 10.3887 22.7615 10.2979 22.8367L10.2231 22.9016L9.98528 23.1093L9.89977 23.1897C9.8303 23.2546 9.76083 23.3221 9.69403 23.3895L9.60319 23.483C9.54173 23.5479 9.48028 23.6127 9.42417 23.6802C9.36806 23.7477 9.36271 23.7477 9.33332 23.784L9.173 23.9761C9.14361 24.015 9.11422 24.0514 9.0875 24.0903C9.06078 24.1292 8.9913 24.2175 8.94587 24.2823L8.86572 24.4017C8.82297 24.4666 8.78288 24.5315 8.7428 24.5964C8.70272 24.6613 8.69204 24.6794 8.66799 24.7236C8.64395 24.7677 8.59584 24.8507 8.56111 24.9156L8.49431 25.048C8.46225 25.1129 8.43286 25.1777 8.40347 25.2426C8.37408 25.3075 8.36338 25.3335 8.34468 25.3802L8.27254 25.5774C8.25651 25.6241 8.23781 25.6708 8.22445 25.7176C8.21109 25.7643 8.18437 25.8525 8.16566 25.92C8.14696 25.9875 8.13894 26.0134 8.12825 26.0602C8.11756 26.1069 8.09619 26.2029 8.08283 26.273C8.06947 26.343 8.06413 26.3638 8.05878 26.4079C8.05344 26.452 8.0374 26.5662 8.02939 26.6467C8.02939 26.683 8.02939 26.722 8.01603 26.7609C8.01603 26.8777 8 26.9971 8 27.1165C8.00157 27.5359 8.06179 27.9533 8.17902 28.357H31.0378C31.1528 27.9529 31.2121 27.5357 31.2142 27.1165C31.1874 27.0074 31.1821 26.8777 31.1714 26.7609Z" stroke="black" stroke-width="1.3" stroke-linecap="round" stroke-linejoin="round"/>
<path d="M14 21V15.913C14 14.8696 14.4 12.6261 16 12" stroke="#8BC0FF" stroke-width="1.5" stroke-linecap="round"/>
</svg>
