<svg xmlns="http://www.w3.org/2000/svg" width="40" height="40" fill="none" viewBox="0 0 40 40">
    <path stroke="#000" stroke-linecap="round" stroke-linejoin="round" stroke-miterlimit="10" d="M12.823 19.13h12.66M12.823 22.997h10.38M12.823 26.852h7.835M18.227 35.242c7.306 0 13.228-5.922 13.228-13.228 0-7.305-5.922-13.227-13.228-13.227C10.922 8.787 5 14.71 5 22.014c0 7.306 5.922 13.228 13.227 13.228z"/>
    <path fill="#fff" d="M30.334 19.142c4.181 0 7.57-3.39 7.57-7.57C37.905 7.39 34.516 4 30.335 4c-4.182 0-7.572 3.39-7.572 7.571 0 4.181 3.39 7.571 7.572 7.571z"/>
    <path stroke="#000" stroke-linecap="round" stroke-linejoin="round" stroke-miterlimit="10" d="M26.39 11.571h7.887M30.334 7.628v7.886"/>
</svg>
