<svg xmlns="http://www.w3.org/2000/svg" width="24" height="24" fill="none" viewBox="0 0 24 24">
    <path fill="#040000" d="M10.5 16.238c1.01 0 1.827-.522 1.827-1.167s-.818-1.167-1.827-1.167c-1.01 0-1.827.522-1.827 1.167s.818 1.167 1.827 1.167z"/>
    <path fill="#040000" d="M10.5 16.566c-1.211 0-2.16-.655-2.16-1.495 0-.84.949-1.495 2.16-1.495 1.21 0 2.16.66 2.16 1.495-.006.84-.95 1.495-2.16 1.495zm0-2.335c-.884 0-1.5.442-1.5.84 0 .398.616.84 1.5.84.883 0 1.5-.442 1.5-.84 0-.398-.617-.84-1.5-.84z"/>
    <path fill="#040000" d="M12.327 15.409c-.18 0-.327-.147-.327-.327l.01-8.128c0-.109.055-.212.148-.272.093-.06.207-.071.305-.033.142.06.191.185.219.262.158.42.414 1.03.796 1.483.289.333.627.497 1.02.688.115.054.229.109.349.169.17.087.306.169.426.262.125.092.42.316.665.725.224.371.36.83.398 1.325.011.18-.12.339-.305.355-.175.022-.338-.12-.355-.305-.027-.393-.136-.753-.305-1.037-.18-.3-.388-.453-.497-.534-.098-.071-.202-.137-.338-.208-.109-.054-.218-.109-.327-.158-.42-.202-.857-.409-1.238-.85-.115-.132-.219-.279-.311-.42l-.006 6.676c0 .18-.147.327-.327.327z"/>
    <path fill="#000" d="M12 20.182c-4.511 0-8.182-3.671-8.182-8.182 0-4.511 3.671-8.182 8.182-8.182 4.51 0 8.182 3.671 8.182 8.182 0 4.51-3.671 8.182-8.182 8.182zm0-15.818c-4.211 0-7.636 3.425-7.636 7.636 0 4.21 3.425 7.636 7.636 7.636 4.21 0 7.636-3.425 7.636-7.636S16.211 4.364 12 4.364z"/>
</svg>
