<svg xmlns="http://www.w3.org/2000/svg" width="40" height="40" fill="none" viewBox="0 0 40 40">
    <g fill="#505050" clip-path="url(#clip0)">
        <path d="M16.694 26.18h-1.303v-5.066l-1.555.486v-1.069l2.719-.982h.14v6.63zM19.02 22.924l.379-3.365h3.678v1.096h-2.61l-.162 1.423c.31-.167.638-.25.987-.25.625 0 1.115.196 1.47.587.355.39.532.938.532 1.641 0 .428-.09.81-.268 1.149-.179.338-.435.6-.768.787-.334.186-.728.28-1.181.28-.397 0-.766-.082-1.105-.244-.34-.162-.608-.39-.805-.684-.197-.294-.302-.629-.314-1.005h1.29c.027.276.122.49.286.643.164.154.378.23.643.23.294 0 .521-.107.68-.32.16-.215.24-.517.24-.908 0-.376-.092-.664-.275-.864-.183-.2-.443-.3-.78-.3-.31 0-.56.081-.753.245l-.126.118-1.038-.26z"/>
        <path d="M28.178 9.477H10.822C8.715 9.477 7 11.182 7 13.278v14.92c0 2.096 1.715 3.801 3.822 3.801h13.433c.235 0 .46-.084.637-.236.054-.023.105-.057.15-.1l6.546-6.512c.042-.041.074-.088.097-.139l.029-.029c.183-.181.286-.429.286-.686V13.278c0-2.096-1.715-3.801-3.822-3.801zm-20.2 18.72V13.279c0-1.556 1.28-2.83 2.844-2.83h17.355c1.565 0 2.845 1.274 2.845 2.83v11.02l-.122.121h-4.232c-1.26 0-2.29 1.025-2.29 2.277v4.21l-.123.121H10.822c-1.565 0-2.845-1.273-2.845-2.83zm21.987-2.806l-4.61 4.585v-3.28c0-.72.59-1.305 1.313-1.305h3.297z"/>
        <path d="M31.267 15.84H7.644c-.282 0-.511-.227-.511-.508 0-.28.229-.508.51-.508h23.624c.282 0 .511.228.511.508s-.229.508-.51.508zM14.993 12.721c-.089 0-.178-.004-.267-.012-1.557-.146-2.706-1.542-2.561-3.113.144-1.57 1.528-2.73 3.085-2.584.712.067 1.367.399 1.846.935.475.532.733 1.219.728 1.933-.002.26-.212.47-.47.468-.258-.003-.466-.215-.464-.475.008-.987-.75-1.831-1.726-1.923-1.044-.097-1.973.68-2.07 1.734-.097 1.053.674 1.99 1.718 2.088.268.025.532-.006.785-.092.244-.084.509.048.591.295.083.246-.048.513-.292.597-.293.099-.596.15-.903.15zM24.018 12.721c-.088 0-.177-.004-.266-.012-1.557-.146-2.707-1.542-2.562-3.113.145-1.57 1.528-2.73 3.086-2.584.712.067 1.367.399 1.845.935.475.532.734 1.219.728 1.933-.002.26-.21.468-.467.468h-.003c-.258-.003-.466-.215-.463-.475.007-.987-.752-1.831-1.727-1.923-1.045-.097-1.973.68-2.07 1.734-.097 1.053.674 1.99 1.718 2.088.268.025.532-.006.785-.092.244-.084.51.048.592.295.082.246-.048.513-.293.597-.292.099-.595.15-.903.15z"/>
    </g>
</svg>
