<svg width="40" height="40" viewBox="0 0 40 40" fill="none" xmlns="http://www.w3.org/2000/svg">
<path d="M33.8456 7H10.2233C9.78921 7.00377 9.37355 7.18065 9.06426 7.49322C8.91229 7.64889 8.79182 7.83385 8.70977 8.03747C8.62773 8.24109 8.58575 8.45934 8.58622 8.67967V23.2514C8.58586 23.4721 8.62797 23.6906 8.71012 23.8946C8.79227 24.0985 8.91284 24.2838 9.06493 24.4399C9.21702 24.5959 9.39765 24.7196 9.59643 24.8039C9.79522 24.8882 10.0082 24.9314 10.2233 24.931H33.8456C34.2798 24.931 34.6962 24.7541 35.0033 24.4391C35.3103 24.1241 35.4828 23.6968 35.4828 23.2514V8.67967C35.4821 8.23441 35.3093 7.80761 35.0025 7.49277C34.6956 7.17793 34.2796 7.00072 33.8456 7Z" fill="#8BC0FF" stroke="#8BC0FF" stroke-width="1.3" stroke-linecap="round" stroke-linejoin="round"/>
<path d="M30.2569 10.5862H6.63699C6.20427 10.5902 5.78987 10.7645 5.48069 11.0726C5.32829 11.2274 5.20739 11.4112 5.12491 11.6136C5.04243 11.816 4.99999 12.0329 5.00002 12.252V26.7036C4.99897 26.9231 5.04051 27.1408 5.12227 27.344C5.20403 27.5472 5.32439 27.732 5.47647 27.8877C5.62855 28.0435 5.80934 28.1672 6.00849 28.2517C6.20763 28.3362 6.42122 28.3799 6.63699 28.3803H9.73468L9.67326 33L17.5403 28.3803H30.2596C30.6935 28.3795 31.1095 28.2038 31.4163 27.8916C31.7231 27.5793 31.8958 27.156 31.8966 26.7144V12.252C31.8966 12.033 31.8541 11.8162 31.7717 11.6139C31.6893 11.4116 31.5684 11.2279 31.4161 11.0731C31.2638 10.9184 31.0831 10.7958 30.8842 10.7122C30.6853 10.6287 30.4721 10.5858 30.2569 10.5862Z" fill="white" stroke="black" stroke-width="1.3" stroke-linecap="round" stroke-linejoin="round"/>
<path d="M11.2759 20.4483C11.771 20.4483 12.1724 20.0469 12.1724 19.5518C12.1724 19.0566 11.771 18.6552 11.2759 18.6552C10.7807 18.6552 10.3793 19.0566 10.3793 19.5518C10.3793 20.0469 10.7807 20.4483 11.2759 20.4483Z" fill="#8BC0FF" stroke="#8BC0FF" stroke-width="1.3" stroke-linecap="round" stroke-linejoin="round"/>
<path d="M18.4483 20.4483C18.9434 20.4483 19.3448 20.0469 19.3448 19.5518C19.3448 19.0566 18.9434 18.6552 18.4483 18.6552C17.9531 18.6552 17.5517 19.0566 17.5517 19.5518C17.5517 20.0469 17.9531 20.4483 18.4483 20.4483Z" fill="#8BC0FF" stroke="#8BC0FF" stroke-width="1.3" stroke-linecap="round" stroke-linejoin="round"/>
<path d="M25.6207 20.4483C26.1158 20.4483 26.5172 20.0469 26.5172 19.5518C26.5172 19.0566 26.1158 18.6552 25.6207 18.6552C25.1255 18.6552 24.7241 19.0566 24.7241 19.5518C24.7241 20.0469 25.1255 20.4483 25.6207 20.4483Z" fill="#8BC0FF" stroke="#8BC0FF" stroke-width="1.3" stroke-linecap="round" stroke-linejoin="round"/>
</svg>
