<svg width="46" height="45" viewBox="0 0 46 45" fill="none" xmlns="http://www.w3.org/2000/svg">
<path d="M19.1516 22.6899C20.3226 22.6899 21.2719 21.7406 21.2719 20.5696C21.2719 19.3985 20.3226 18.4492 19.1516 18.4492C17.9806 18.4492 17.0312 19.3985 17.0312 20.5696C17.0312 21.7406 17.9806 22.6899 19.1516 22.6899Z" stroke="white" stroke-miterlimit="10"/>
<path d="M13.1992 30.7515L16.8649 25.1093L20.0514 27.8406L25.6218 21.6113L32.1145 30.7515H13.1992Z" stroke="white" stroke-miterlimit="10" stroke-linecap="round" stroke-linejoin="round"/>
<path d="M32.3286 35.5548H12.9701C11.6524 35.5548 10.5742 34.4767 10.5742 33.159V13.7884C10.5742 12.4707 11.6524 11.3926 12.9701 11.3926H32.3286C33.6464 11.3926 34.7245 12.4707 34.7245 13.7884V33.147C34.7245 34.4767 33.6583 35.5548 32.3286 35.5548Z" stroke="white" stroke-miterlimit="10" stroke-linecap="round" stroke-linejoin="round"/>
<path d="M33.152 18.1281C30.1746 18.1281 27.7461 15.6996 27.7461 12.7223C27.7461 9.74496 30.1746 7.31641 33.152 7.31641C36.1293 7.31641 38.5578 9.74496 38.5578 12.7223C38.5578 15.6996 36.1293 18.1281 33.152 18.1281Z" fill="#8BC0FF"/>
<path d="M33.1537 7.9C35.8158 7.9 37.9758 10.06 37.9758 12.7221C37.9758 15.3841 35.8158 17.5442 33.1537 17.5442C30.4916 17.5442 28.3316 15.3841 28.3316 12.7221C28.3316 10.0717 30.4916 7.9 33.1537 7.9ZM33.1537 6.73242C29.8495 6.73242 27.1641 9.41784 27.1641 12.7221C27.1641 16.0263 29.8495 18.7117 33.1537 18.7117C36.458 18.7117 39.1434 16.0263 39.1434 12.7221C39.1434 9.41784 36.458 6.73242 33.1537 6.73242Z" fill="#8BC0FF"/>
<path d="M30.375 12.7227H35.9327" stroke="white" stroke-width="0.7" stroke-miterlimit="10" stroke-linecap="round" stroke-linejoin="round"/>
<path d="M33.1523 9.94336V15.501" stroke="white" stroke-width="0.7" stroke-miterlimit="10" stroke-linecap="round" stroke-linejoin="round"/>
</svg>
