<svg xmlns="http://www.w3.org/2000/svg" width="145" height="40" fill="none" viewBox="0 0 145 40">
    <path fill="#A9C1FF" d="M48.111 13.478v12.586h1.148V13.478h-1.148zm-5.474.966c-1.862 0-3.192 1.708-3.192 4.382 0 2.674 1.33 4.382 3.192 4.382s3.192-1.708 3.192-4.382c0-2.674-1.33-4.382-3.192-4.382zm0 1.036c1.218 0 2.086 1.316 2.086 3.346 0 2.044-.868 3.36-2.086 3.36-1.232 0-2.1-1.316-2.1-3.36 0-2.03.868-3.346 2.1-3.346zm13.383 6.272h-2.632v-5.908h2.632v5.908zm2.926-3.542h-1.862v-3.276H52.31v7.728h4.774v-3.5h1.862v6.244h1.092V13.758h-1.092v4.452zm2.492-4.732v12.544h1.092V13.478h-1.092zm13.607 0h-1.148v6.44h1.148v-6.44zm-8.904 3.248c0-1.092.91-1.862 2.128-1.862 1.232 0 2.128.77 2.128 1.862 0 1.078-.896 1.848-2.128 1.848-1.218 0-2.128-.77-2.128-1.848zm5.376 0c0-1.666-1.372-2.8-3.248-2.8-1.876 0-3.234 1.134-3.234 2.8 0 1.652 1.358 2.772 3.234 2.772s3.248-1.12 3.248-2.772zm-3.444 8.232v-1.386h6.972v-3.038h-8.134v.91h7v1.274h-6.972v3.15h8.526v-.91h-7.392zm15.805-1.414v-2.366h4.018v-.924h-7.728v-2.03h7.434v-3.822h-8.596v.938h7.476v1.96h-7.448v3.878h3.682v2.366h-5.11v.938h11.41v-.938h-5.138zm10.78-8.722v.952h4.605c-.266 2.968-1.988 5.376-5.194 6.986l.63.896c4.06-2.03 5.698-5.264 5.698-8.834h-5.74zm11.003 3.752h-2.016v-5.096h-1.148v12.558h1.148v-6.51h2.016v-.952zm10.359-5.082v6.734h1.148v-6.734h-1.148zm-6.944 7.35v5.026h8.092v-5.026h-1.134v1.54h-5.824v-1.54h-1.134zm1.134 2.436h5.824v1.666h-5.824v-1.666zm.21-9.198c-1.89 0-3.262 1.176-3.262 2.884 0 1.736 1.372 2.898 3.262 2.898 1.904 0 3.29-1.162 3.29-2.898 0-1.708-1.386-2.884-3.29-2.884zm0 .952c1.274 0 2.17.798 2.17 1.932 0 1.148-.896 1.946-2.17 1.946-1.246 0-2.142-.798-2.142-1.946 0-1.134.896-1.932 2.142-1.932zm13.005 7.252c-1.134 0-1.96-.812-1.96-1.932 0-1.134.826-1.946 1.96-1.946 1.148 0 1.974.812 1.974 1.946 0 1.12-.826 1.932-1.974 1.932zm0-4.83c-1.764 0-3.038 1.204-3.038 2.898 0 1.708 1.274 2.884 3.038 2.884 1.792 0 3.066-1.176 3.066-2.884 0-1.694-1.274-2.898-3.066-2.898zm.56-3.822h-1.148v1.862h-3.164v.924h7.406v-.924h-3.094v-1.862zm7.49 5.012h-2.058v-5.152h-1.148v12.544h1.148V19.61h2.058v-.966zm1.889-3.808v.924h4.718c-.238 2.982-1.918 5.39-5.292 7l.616.938c4.172-2.044 5.838-5.236 5.838-8.862h-5.88zm8.414-1.358v12.558h1.148V13.478h-1.148zM22 16.887V26H6v-9.113l8 4.556 8-4.556z"/>
    <path fill="#A9C1FF" d="M14 15h8l-8 4.557L6 15h8z"/>
</svg>
