<svg xmlns="http://www.w3.org/2000/svg" width="60" height="60" fill="none" viewBox="0 0 60 60">
    <g clip-path="url(#clip0)">
        <path fill="#4285F4" d="M38.949 28.49c.19.88.48 2.88-.35 5.14-.66 1.79-1.72 2.93-2.13 3.33-.04.04-.08.07-.11.11l-2.89-2.27c.99-.67 1.43-1.54 1.53-1.74.19-.38.28-.73.34-.98h-4.96v-3.59h8.57z"/>
        <path fill="#EA4336" d="M36.41 23.26l-2.66 2.69c-.35-.31-.93-.72-1.73-.98-.77-.25-1.41-.24-1.75-.23-.97.03-1.69.3-1.91.38-1.11.44-1.8 1.15-2.1 1.49-.17.2-.72.86-1.06 1.86l-3.09-2.35c.01-.02.02-.05.03-.07.42-.84.87-1.43 1.11-1.72.34-.42 1.38-1.6 3.15-2.45 1.55-.74 2.92-.87 3.45-.9.75-.04 2.73-.07 4.82 1.05.77.42 1.35.89 1.74 1.23z"/>
        <path fill="#34A852" d="M33.46 34.8l2.89 2.27c-.74.71-1.42 1.11-1.58 1.2-2.42 1.4-4.94 1.07-5.69.96-2.64-.38-4.33-1.76-4.73-2.1-1.2-1.02-1.88-2.14-2.24-2.87l3.1-2.35c.09.27.24.66.5 1.09.48.81 1.03 1.28 1.16 1.39.21.18.85.69 1.84.99.17.05.93.28 1.98.23.61-.03 1.69-.08 2.77-.81z"/>
        <path fill="#FBBC06" d="M25.21 31.91l-3.1 2.35c-.01-.03-.03-.05-.04-.08-.67-1.39-.86-2.67-.91-3.53-.03-.59-.07-2.46.93-4.51l3.09 2.35c-.15.43-.25.93-.27 1.47 0 .23-.01 1.02.3 1.95z"/>
        <mask id="3xyaxg8xqa" fill="#fff">
            <path d="M30.16 8.3c12.05 0 21.86 9.8 21.86 21.86 0 12.05-9.8 21.86-21.86 21.86-12.05 0-21.86-9.8-21.86-21.86C8.3 18.1 18.1 8.3 30.16 8.3zm0-.3C17.92 8 8 17.92 8 30.16s9.92 22.16 22.16 22.16 22.16-9.92 22.16-22.16C52.31 17.92 42.39 8 30.16 8z"/>
        </mask>
        <path fill="#CCC" d="M30.16 8.3c12.05 0 21.86 9.8 21.86 21.86 0 12.05-9.8 21.86-21.86 21.86-12.05 0-21.86-9.8-21.86-21.86C8.3 18.1 18.1 8.3 30.16 8.3zm0-.3C17.92 8 8 17.92 8 30.16s9.92 22.16 22.16 22.16 22.16-9.92 22.16-22.16C52.31 17.92 42.39 8 30.16 8z"/>
        <path fill="#CCC" d="M8.3 30.16H6.8h1.5zm44.02 0h1.5v-.001l-1.5.001zM30.16 9.8c11.222 0 20.36 9.129 20.36 20.36h3c0-12.889-10.482-23.36-23.36-23.36v3zm20.36 20.36c0 11.222-9.129 20.36-20.36 20.36v3c12.889 0 23.36-10.482 23.36-23.36h-3zM30.16 50.52c-11.222 0-20.36-9.129-20.36-20.36h-3c0 12.889 10.482 23.36 23.36 23.36v-3zM9.8 30.16C9.8 18.928 18.928 9.8 30.16 9.8v-3C17.272 6.8 6.8 17.272 6.8 30.16h3zM30.16 6.5C17.092 6.5 6.5 17.092 6.5 30.16h3C9.5 18.748 18.748 9.5 30.16 9.5v-3zM6.5 30.16c0 13.068 10.592 23.66 23.66 23.66v-3c-11.412 0-20.66-9.248-20.66-20.66h-3zm23.66 23.66c13.068 0 23.66-10.592 23.66-23.66h-3c0 11.412-9.248 20.66-20.66 20.66v3zm23.66-23.661C53.81 17.092 43.22 6.5 30.16 6.5v3c11.4 0 20.65 9.248 20.66 20.661l3-.002z" mask="url(#3xyaxg8xqa)"/>
    </g>

</svg>
