<svg width="30" height="30" viewBox="0 0 30 30" fill="none" xmlns="http://www.w3.org/2000/svg">
<path d="M15.0608 27.7104C22.0475 27.7104 27.7114 22.0465 27.7114 15.0598C27.7114 8.07305 22.0475 2.40918 15.0608 2.40918C8.07402 2.40918 2.41016 8.07305 2.41016 15.0598C2.41016 22.0465 8.07402 27.7104 15.0608 27.7104Z" stroke="#8BC0FF" stroke-width="1.5" stroke-miterlimit="10" stroke-linecap="round" stroke-linejoin="round"/>
<path d="M14.9596 19.9383C15.3268 19.9383 17.1786 19.8824 18.6713 18.3818C18.9906 18.0625 20.2199 16.7534 20.2119 14.702C20.2039 12.7064 19.0305 11.4213 18.6553 11.0461C18.2802 10.6709 16.995 9.48957 15.0075 9.48159C12.9002 9.46563 11.5671 10.7587 11.2957 11.0381C9.84298 12.5068 9.78711 14.3188 9.78711 14.686" stroke="#8BC0FF" stroke-width="1.5" stroke-miterlimit="10" stroke-linecap="round" stroke-linejoin="round"/>
<path d="M13.043 19.9223L14.7911 18.1582L14.7831 19.9223V21.6863L13.043 19.9223Z" fill="#8BC0FF" stroke="#8BC0FF" stroke-width="1.5" stroke-miterlimit="10" stroke-linecap="round" stroke-linejoin="round"/>
</svg>
