<svg width="16" height="15" viewBox="0 0 16 15" fill="none" xmlns="http://www.w3.org/2000/svg">
<path d="M6.33268 1.84502C8.7947 1.84502 10.7955 3.81919 10.7955 6.24846C10.7955 8.67774 8.7947 10.6519 6.33268 10.6519C3.87067 10.6519 1.86989 8.67774 1.86989 6.24846C1.86989 3.81919 3.87067 1.84502 6.33268 1.84502ZM6.33268 0C2.836 0 0 2.79828 0 6.24846C0 9.69865 2.836 12.4969 6.33268 12.4969C9.82937 12.4969 12.6654 9.69865 12.6654 6.24846C12.6654 2.79828 9.82937 0 6.33268 0Z" fill="#C4C4C4"/>
<path d="M10.7225 8.85267L9.77051 9.79199L14.6097 14.5669L15.5617 13.6276L10.7225 8.85267Z" fill="#C4C4C4"/>
<path d="M10.721 9.2861L15.1215 13.628L14.6104 14.1324L10.2099 9.79041L10.721 9.2861ZM10.721 8.41895L9.33105 9.79041L14.6104 14.9995L16.0003 13.628L10.721 8.41895Z" fill="#C4C4C4"/>
</svg>
