<svg xmlns="http://www.w3.org/2000/svg" width="28" height="28" fill="none" viewBox="0 0 28 28">
    <path fill="#fff" d="M14 9.506c3.297 0 6.251 1.75 7.623 4.494-1.372 2.737-4.333 4.494-7.623 4.494S7.75 16.737 6.377 14C7.75 11.263 10.703 9.506 14 9.506zm0-.7c-3.787 0-7.028 2.142-8.4 5.194 1.372 3.052 4.613 5.194 8.4 5.194s7.028-2.142 8.4-5.194c-1.372-3.045-4.613-5.194-8.4-5.194z"/>
    <path fill="#fff" d="M14 11.459c1.4 0 2.541 1.141 2.541 2.541S15.4 16.541 14 16.541 11.459 15.4 11.459 14 12.6 11.459 14 11.459zm0-.7c-1.792 0-3.241 1.449-3.241 3.241s1.449 3.241 3.241 3.241 3.241-1.449 3.241-3.241-1.449-3.241-3.241-3.241z"/>
</svg>
