<svg xmlns="http://www.w3.org/2000/svg" width="40" height="40" fill="none" viewBox="0 0 40 40">
    <path fill="#fff" d="M39.87.13H.12v39.75h39.75V.13z"/>
    <path fill="#fff" stroke="#000" stroke-linecap="round" stroke-linejoin="round" stroke-miterlimit="10" d="M15.54 25.02l-2.11-1.88c-.25-.23-.28-.62-.05-.87l9.5-10.65c.23-.25.62-.28.87-.05l2.11 1.88c.25.23.28.62.05.87l-9.5 10.65c-.22.26-.61.28-.87.05z"/>
    <path fill="#fff" stroke="#000" stroke-linecap="round" stroke-linejoin="round" stroke-miterlimit="10" d="M13.15 22.57l-.54 3.41 3.36-.72-2.82-2.69z"/>
    <path stroke="#000" stroke-linecap="round" stroke-linejoin="round" stroke-miterlimit="10" d="M8 28.59h24"/>
    <path fill="#fff" d="M39.88.12H.13v39.75h39.75V.12z"/>
    <path stroke="#000" stroke-linecap="round" stroke-linejoin="round" stroke-miterlimit="10" d="M29.03 12.61H8.17v17.84h20.86V12.61z"/>
    <path fill="#fff" stroke="#000" stroke-linecap="round" stroke-linejoin="round" stroke-miterlimit="10" d="M15.44 25.36c.883 0 1.6-.716 1.6-1.6 0-.884-.716-1.6-1.6-1.6-.884 0-1.6.716-1.6 1.6 0 .884.716 1.6 1.6 1.6z"/>
    <path stroke="#000" stroke-linecap="round" stroke-linejoin="round" stroke-miterlimit="10" d="M17.04 23.85v-7.27M17.07 16.58l4.93 1.5"/>
    <path fill="#fff" stroke="#000" stroke-linecap="round" stroke-linejoin="round" stroke-miterlimit="10" d="M20.4 26.79c.884 0 1.6-.716 1.6-1.6 0-.884-.716-1.6-1.6-1.6-.884 0-1.6.716-1.6 1.6 0 .884.716 1.6 1.6 1.6z"/>
    <path stroke="#000" stroke-linecap="round" stroke-linejoin="round" stroke-miterlimit="10" d="M22 25.19v-7.04M11.12 11.4V9.55h20.71v16.56"/>
</svg>
