<svg xmlns="http://www.w3.org/2000/svg" width="14" height="14" fill="none" viewBox="0 0 14 14">
    <g clip-path="url(#clip0)">
        <path fill="#fff" fill-opacity=".74" d="M14 0H3.56v8.325c-.602-.197-1.41-.143-2.15.286-1.152.645-1.72 1.826-1.238 2.632s1.806.93 2.958.268c.963-.537 1.462-1.414 1.359-2.166v-5.64h8.582v6.607c-.636-.233-1.496-.125-2.27.376-1.118.716-1.6 1.916-1.084 2.703.516.77 1.858.824 2.976.108.825-.537 1.307-1.325 1.29-2.023H14V0zM4.489 2.793V1.27h8.582v1.54H4.49v-.018z"/>
    </g>
</svg>
