<svg xmlns="http://www.w3.org/2000/svg" width="24" height="24" fill="none" viewBox="0 0 24 24">
    <path fill="#000" d="M11.703 6.809c3.809 0 7.221 2.021 8.806 5.191-1.585 3.162-5.005 5.191-8.806 5.191-3.8 0-7.22-2.03-8.805-5.191 1.584-3.162 4.997-5.191 8.805-5.191zm0-.809C7.33 6 3.585 8.474 2 12c1.585 3.525 5.329 6 9.703 6 4.375 0 8.119-2.475 9.704-6-1.585-3.526-5.329-6-9.704-6z"/>
    <path fill="#000" d="M11.704 8.889c1.714 0 3.111 1.397 3.111 3.111 0 1.714-1.397 3.111-3.111 3.111-1.714 0-3.112-1.397-3.112-3.111 0-1.714 1.398-3.111 3.112-3.111zm0-.858C9.51 8.031 7.735 9.806 7.735 12s1.775 3.969 3.969 3.969 3.968-1.775 3.968-3.969-1.774-3.969-3.968-3.969z"/>
</svg>
