<svg xmlns="http://www.w3.org/2000/svg" width="114" height="114" fill="none" viewBox="0 0 114 114">
    <circle cx="57" cy="57" r="57" fill="#A9C1FF" fill-opacity=".5"/>
    <circle cx="57" cy="57" r="56" stroke="#A9C1FF" stroke-opacity=".5" stroke-width="2"/>
    <path fill="#fff" d="M57 114c15.96 0 30.37-6.56 40.72-17.13-8.31-17.59-23.88-29.2-41.24-29.2-17.12 0-32.5 11.29-40.89 28.47C25.98 107.13 40.68 114 57 114z"/>
    <path fill="#fff" stroke="#fff" stroke-linecap="round" stroke-linejoin="round" stroke-miterlimit="10" stroke-width="1.2" d="M56.48 60.81c12.161 0 22.02-9.86 22.02-22.02 0-12.162-9.859-22.02-22.02-22.02s-22.02 9.858-22.02 22.02c0 12.16 9.859 22.02 22.02 22.02z"/>
    <circle cx="57" cy="57" r="56" stroke="#A9C1FF" stroke-opacity=".5" stroke-width="2"/>
</svg>
