<svg width="19" height="19" viewBox="0 0 19 19" fill="none" xmlns="http://www.w3.org/2000/svg">
<path d="M9.49985 18.0739C4.77763 18.0739 0.925781 14.2221 0.925781 9.49985C0.925781 4.77763 4.77763 0.925781 9.49985 0.925781C14.2221 0.925781 18.0739 4.77763 18.0739 9.49985C18.0739 14.2221 14.2221 18.0739 9.49985 18.0739Z" fill="#8BC0FF"/>
<path d="M9.5 1.85185C13.7222 1.85185 17.1481 5.27778 17.1481 9.5C17.1481 13.7222 13.7222 17.1481 9.5 17.1481C5.27778 17.1481 1.85185 13.7222 1.85185 9.5C1.85185 5.2963 5.27778 1.85185 9.5 1.85185ZM9.5 0C4.25926 0 0 4.25926 0 9.5C0 14.7407 4.25926 19 9.5 19C14.7407 19 19 14.7407 19 9.5C19 4.25926 14.7407 0 9.5 0Z" fill="#8BC0FF"/>
<path d="M5.09375 9.5H13.9086" stroke="white" stroke-width="0.7" stroke-miterlimit="10" stroke-linecap="round" stroke-linejoin="round"/>
<path d="M9.5 5.0918V13.9066" stroke="white" stroke-width="0.7" stroke-miterlimit="10" stroke-linecap="round" stroke-linejoin="round"/>
</svg>
