<svg xmlns="http://www.w3.org/2000/svg" width="30" height="30" fill="none" viewBox="0 0 30 30">
    <path fill="#C4C4C4" d="M13.333 9.845c2.462 0 4.463 1.974 4.463 4.403 0 2.43-2.001 4.404-4.463 4.404S8.87 16.678 8.87 14.248c0-2.429 2-4.403 4.463-4.403zm0-1.845C9.836 8 7 10.798 7 14.248s2.836 6.249 6.333 6.249c3.496 0 6.332-2.798 6.332-6.248S16.83 8 13.333 8z"/>
    <path fill="#C4C4C4" d="M17.722 16.853l-.952.94 4.84 4.774.951-.939-4.839-4.775z"/>
    <path fill="#C4C4C4" d="M17.72 17.287l4.401 4.341-.51.505-4.401-4.342.51-.504zm0-.868l-1.39 1.372L21.61 23 23 21.628l-5.28-5.209z"/>
</svg>
