<svg xmlns="http://www.w3.org/2000/svg" width="40" height="40" fill="none" viewBox="0 0 40 40">
    <g stroke="#191919" stroke-miterlimit="10" stroke-width="1.2" clip-path="url(#clip0)">
        <path d="M27.62 22.238l1.904-.349-.008-3.73-1.88-.333c-.167-.572-.39-1.12-.667-1.627l1.103-1.596-2.635-2.634-1.587 1.103c-.5-.278-1.04-.5-1.604-.667l-.349-1.928-3.73.008-.35 1.928c-.555.159-1.079.381-1.579.65l-1.634-1.134-2.627 2.635 1.127 1.627c-.27.492-.485 1.016-.643 1.555l-1.984.366.008 3.73 1.952.349c.159.547.373 1.071.635 1.563l-1.143 1.643 2.635 2.635 1.619-1.127c.492.278 1.016.5 1.571.667l.357 1.952 3.73-.008.342-1.904c.563-.16 1.103-.381 1.611-.651l1.611 1.11 2.635-2.634-1.095-1.572c.27-.515.5-1.055.674-1.627z"/>
        <path d="M20.048 23.548c1.986 0 3.596-1.61 3.596-3.595 0-1.986-1.61-3.596-3.596-3.596-1.985 0-3.595 1.61-3.595 3.596 0 1.985 1.61 3.595 3.595 3.595z"/>
    </g>

</svg>
