<svg xmlns="http://www.w3.org/2000/svg" width="40" height="40" fill="none" viewBox="0 0 40 40">
    <path fill="#A9C1FF" d="M20.001 10.842l2.98 6.034 6.66.966-4.816 4.695 1.137 6.626-5.961-3.126-5.953 3.126 1.137-6.627-4.816-4.694 6.66-.966L20 10.842zm0-.812c-.309 0-.593.179-.73.455l-2.787 5.652-6.237.91c-.308.04-.56.26-.657.552-.098.292-.017.617.203.836l4.515 4.402-1.064 6.213c-.049.308.073.609.325.796.138.105.309.154.48.154.13 0 .259-.033.38-.09l5.572-2.956 5.58 2.932c.121.065.251.09.381.09.17 0 .333-.05.48-.155.25-.178.373-.487.324-.796l-1.064-6.212 4.515-4.402c.22-.22.301-.536.204-.837-.098-.3-.35-.511-.658-.552l-6.237-.91-2.794-5.635c-.138-.277-.422-.447-.731-.447z"/>
</svg>
