<svg width="40" height="40" viewBox="0 0 40 40" fill="none" xmlns="http://www.w3.org/2000/svg">
<path d="M22.1436 8.16821C21.5468 7.83148 20.5502 7.99843 19.9534 8.68603L11.7803 15.8734C11.6036 15.7625 11.3954 15.7053 11.1835 15.7092H7.98769C7.73803 15.6977 7.49375 15.7806 7.30854 15.9398C7.12333 16.099 7.01236 16.3214 7 16.5581V23.5813C7.01236 23.8181 7.12333 24.0405 7.30854 24.1997C7.49375 24.3588 7.73803 24.4418 7.98769 24.4302H11.1955C11.333 24.4327 11.4696 24.4089 11.5972 24.3603C11.7249 24.3117 11.8409 24.2392 11.9385 24.1473C15.2895 27.2457 17.8855 29.5972 19.3059 30.8903C19.7296 31.2752 20.6725 32.1326 21.693 31.9826C22.1008 31.9105 22.4716 31.7113 22.7464 31.4167V9.20386C22.7396 8.99831 22.6813 8.79723 22.5766 8.61718C22.4718 8.43713 22.3234 8.28326 22.1436 8.16821V8.16821Z" stroke="white" stroke-width="1.5" stroke-linecap="round" stroke-linejoin="round"/>
<path d="M11.6313 16V24" stroke="white" stroke-width="1.5" stroke-linecap="round" stroke-linejoin="round"/>
<path d="M26.4514 14.082C26.8292 14.3864 29.3694 16.3983 29.3299 19.7069C29.2905 22.8481 26.9589 24.7717 26.5642 25.0883" stroke="white" stroke-width="1.5" stroke-linecap="round" stroke-linejoin="round"/>
<path d="M29.433 12C29.901 12.4018 33.0502 15.1868 32.9994 19.7464C32.9515 24.0685 30.0617 26.7166 29.5739 27.1519" stroke="white" stroke-width="2" stroke-linecap="round" stroke-linejoin="round"/>
</svg>
