<svg xmlns="http://www.w3.org/2000/svg" width="64" height="60" fill="none" viewBox="0 0 64 60">
    <circle cx="30" cy="30" r="30" fill="#fff"/>
    <circle cx="30" cy="30" r="30" fill="#A9C1FF" fill-opacity=".3"/>
    <g clip-path="url(#clip0)">
        <path fill="#fff" fill-opacity=".74" d="M36 25H25.56v8.325c-.602-.197-1.41-.143-2.15.286-1.152.645-1.72 1.826-1.238 2.632s1.806.93 2.958.268c.963-.537 1.462-1.414 1.359-2.166v-5.64h8.582v6.607c-.636-.233-1.496-.125-2.27.376-1.118.716-1.6 1.916-1.084 2.703.516.77 1.858.824 2.976.108.825-.537 1.307-1.325 1.29-2.023H36V25zm-9.511 2.793V26.27h8.582v1.54H26.49v-.018z"/>
    </g>
    <g stroke="#fff" stroke-linecap="round" stroke-linejoin="round" clip-path="url(#clip1)">
        <path fill="#A9C1FF" stroke-miterlimit="10" d="M53.504 26.686c5.623 0 10.182-4.559 10.182-10.182S59.127 6.322 53.504 6.322s-10.182 4.559-10.182 10.182 4.559 10.182 10.182 10.182z"/>
        <path d="M48.5 16.5L58.5 16.5M53.5 11.5L53.5 21.5"/>
    </g>
</svg>
