<svg width="40" height="40" viewBox="0 0 40 40" fill="none" xmlns="http://www.w3.org/2000/svg">
<path d="M14.8193 17.6656C12.3466 15.4117 8.3365 15.4117 5.85453 17.6656C3.38182 19.9195 3.38182 23.5746 5.85453 25.8369L14.8193 33.9999L23.784 25.8285C26.2567 23.5746 26.2567 19.9195 23.784 17.6571C21.302 15.4032 17.292 15.4032 14.8193 17.6656Z" stroke="white" stroke-width="1.5" stroke-miterlimit="10" stroke-linecap="round" stroke-linejoin="round"/>
<path d="M29.5586 6.96665C28.1507 5.68339 25.8676 5.68339 24.4544 6.96665C23.0466 8.24991 23.0466 10.331 24.4544 11.6191L29.5586 16.2667L34.6627 11.6143C36.0705 10.331 36.0705 8.24991 34.6627 6.96184C33.2495 5.67859 30.9664 5.67859 29.5586 6.96665Z" stroke="white" stroke-width="1.5" stroke-miterlimit="10" stroke-linecap="round" stroke-linejoin="round"/>
</svg>
