<svg xmlns="http://www.w3.org/2000/svg" width="40" height="40" fill="none" viewBox="0 0 40 40">
    <path stroke="#707070" stroke-linecap="round" stroke-linejoin="round" stroke-miterlimit="10" stroke-width="1.2" d="M20.74 16.34h-7.32l-1.98 1.61-.93-1.61H9.22c-.64 0-1.15-.52-1.15-1.15V9.17c0-.64.52-1.15 1.15-1.15h11.51c.64 0 1.15.52 1.15 1.15v6.02c.01.63-.51 1.15-1.14 1.15zM10.55 10.94h6.94M12.43 13.62h6.93M15.51 29.9H25l2.57 2.08 1.21-2.08h1.66c.82 0 1.49-.67 1.49-1.5v-7.8c0-.83-.67-1.5-1.49-1.5H15.51c-.82 0-1.49.67-1.49 1.5v7.8c0 .83.67 1.5 1.49 1.5zM17.24 22.91h8.99M19.67 26.37h8.99"/>
</svg>
