<svg xmlns="http://www.w3.org/2000/svg" width="40" height="40" fill="none" viewBox="0 0 40 40">
    <path stroke="#A4A4A4" stroke-miterlimit="10" d="M16.538 20.42c1.054 0 1.908-.854 1.908-1.907 0-1.054-.854-1.909-1.908-1.909-1.054 0-1.909.855-1.909 1.909 0 1.053.855 1.908 1.909 1.908z"/>
    <path stroke="#A4A4A4" stroke-linecap="round" stroke-linejoin="round" stroke-miterlimit="10" d="M11.18 27.677l3.298-5.078 2.868 2.458 5.014-5.606 5.843 8.226H11.18z"/>
    <path stroke="#A4A4A4" stroke-linecap="round" stroke-linejoin="round" stroke-miterlimit="10" d="M28.397 32H10.975c-1.186 0-2.157-.97-2.157-2.156V12.41c0-1.186.97-2.156 2.157-2.156h17.422c1.186 0 2.157.97 2.157 2.156v17.423c0 1.197-.96 2.167-2.157 2.167z"/>
    <path fill="#EEF4FF" d="M29.141 16.316c-2.68 0-4.865-2.186-4.865-4.865 0-2.68 2.186-4.866 4.865-4.866 2.68 0 4.865 2.186 4.865 4.866 0 2.68-2.185 4.865-4.865 4.865z"/>
    <path fill="#EEF4FF" d="M29.141 7.11c2.396 0 4.34 1.945 4.34 4.34 0 2.397-1.944 4.34-4.34 4.34s-4.34-1.943-4.34-4.34c0-2.385 1.944-4.34 4.34-4.34zm0-1.05c-2.974 0-5.39 2.417-5.39 5.39 0 2.975 2.416 5.391 5.39 5.391 2.974 0 5.39-2.417 5.39-5.39 0-2.974-2.416-5.391-5.39-5.391z"/>
    <path stroke="#A9C1FF" stroke-linecap="round" stroke-linejoin="round" stroke-miterlimit="10" stroke-width=".7" d="M26.64 11.45h5.002M29.141 8.95v5.002"/>
</svg>
