<svg xmlns="http://www.w3.org/2000/svg" width="24" height="24" fill="none" viewBox="0 0 24 24">
    <path fill="#fff" d="M12 8.148c2.826 0 5.358 1.5 6.534 3.852-1.176 2.346-3.714 3.852-6.534 3.852S6.642 14.346 5.466 12C6.642 9.654 9.174 8.148 12 8.148zm0-.6c-3.246 0-6.024 1.836-7.2 4.452 1.176 2.616 3.954 4.452 7.2 4.452s6.024-1.836 7.2-4.452c-1.176-2.61-3.954-4.452-7.2-4.452z"/>
    <path fill="#fff" d="M12 9.822c1.2 0 2.178.978 2.178 2.178S13.2 14.178 12 14.178 9.822 13.2 9.822 12 10.8 9.822 12 9.822zm0-.6c-1.536 0-2.778 1.242-2.778 2.778s1.242 2.778 2.778 2.778 2.778-1.242 2.778-2.778S13.536 9.222 12 9.222z"/>
</svg>
