<svg xmlns="http://www.w3.org/2000/svg" width="14" height="14" fill="none" viewBox="0 0 14 14">
    <path fill="#EE625C" fill-rule="evenodd" d="M7 .492C3.405.492.492 3.405.492 7S3.405 13.508 7 13.508 13.508 10.595 13.508 7 10.595.492 7 .492zM0 7c0-3.866 3.134-7 7-7s7 3.134 7 7-3.134 7-7 7-7-3.134-7-7z" clip-rule="evenodd"/>
    <path fill="#EE625C" fill-rule="evenodd" d="M7 2.276c.19 0 .344.154.344.344V9.12c0 .19-.154.344-.344.344-.19 0-.344-.154-.344-.344V2.62c0-.19.154-.344.344-.344z" clip-rule="evenodd"/>
    <path fill="#EE625C" d="M7 11.33c.253 0 .457-.204.457-.456 0-.253-.204-.458-.457-.458-.252 0-.457.205-.457.458 0 .252.205.457.457.457z"/>
</svg>
